<?xml version="1.0" ?>
<svg xmlns="http://www.w3.org/2000/svg" viewBox="0 0 1017.4 355.1">
	<style type="text/css">
		.st97{fill-opacity:0.32;}
		.st99{fill-opacity:0.24;}
		.st105{fill:#FFFFFF;filter:url(#Adobe_OpacityMaskFilter);}
		.st106{mask:url(#mask0_00000045600482063877763850000018203340017490944154_);}
		.st110{opacity:0.5;fill:#B0ADFF;enable-background:new ;}
	</style>
	<g name="logo">
		<g style="clip-path:url(#SVGID_00000134227339461458493900000007223171829834478471_);" transform="scale(6.107) translate(-380.11 -18.62)">
			<defs>
				<filter id="Adobe_OpacityMaskFilter" filterUnits="userSpaceOnUse" x="380.11" y="17.59" width="43.02" height="61.46">
					<feColorMatrix type="matrix" values="1 0 0 0 0 0 1 0 0 0 0 0 1 0 0 0 0 0 1 0"/>
				</filter>
			</defs>
			<mask maskUnits="userSpaceOnUse" x="380.11" y="17.59" width="43.02" height="61.46" id="mask0_00000045600482063877763850000018203340017490944154_">
				<path class="st105" d="M 423.14,37.29 C 423.14,34.69 421.51,32.38 419.06,31.5 L 383.4,18.77 C 381.8,18.2 380.11,19.39 380.11,21.09 L 380.11,40.45 C 380.11,41.49 380.76,42.42 381.74,42.77 L 397.72,48.48 C 399.32,49.05 401.01,47.86 401.01,46.16 L 401.01,35.03 C 401.01,34.17 401.87,33.58 402.67,33.88 L 406.86,35.46 C 409.26,36.36 410.84,38.65 410.84,41.21 L 410.84,46.05 L 392.79,52.65 C 391.82,53.0 391.18,53.93 391.18,54.96 L 391.18,74.31 C 391.18,76.02 392.88,77.21 394.48,76.62 L 419.1,67.62 C 421.52,66.73 423.14,64.43 423.14,61.85 L 423.14,37.29"/>
			</mask>
			<g class="st106">
				<linearGradient id="SVGID_00000178883601381428405910000004453646959259357576_" gradientUnits="userSpaceOnUse" x1="394.265" y1="1016.1134" x2="405.7044" y2="986.1689" gradientTransform="matrix(1 0 0 -1 0 1034.4158)">
					<stop offset="0" style="stop-color:#0B53CE"/>
					<stop offset="1" style="stop-color:#7252AA"/>
				</linearGradient>
				<path style="fill:url(#SVGID_00000178883601381428405910000004453646959259357576_);" d="M 380.11,17.59 L 423.13,32.95 L 423.13,54.05 C 423.13,55.75 421.45,56.94 419.85,56.37 L 410.84,53.15 L 410.84,41.21 C 410.84,38.65 409.25,36.36 406.86,35.46 L 402.67,33.89 C 401.87,33.59 401.01,34.18 401.01,35.04 L 401.01,49.65 L 380.11,42.19 L 380.11,17.59"/>
				<g>
					<path class="st99" d="M 423.13,37.51 L 423.13,37.51 C 423.13,40.09 421.52,42.4 419.09,43.29 L 391.17,53.49 L 391.17,78.07 L 423.13,66.39 L 423.13,37.51 L 423.13,37.51"/>
				</g>
				<g>
					<path class="st97" d="M 423.13,38.49 L 423.13,38.49 C 423.13,41.07 421.52,43.38 419.09,44.27 L 391.17,54.47 L 391.17,79.05 L 423.13,67.37 L 423.13,38.49 L 423.13,38.49"/>
				</g>
				<linearGradient id="SVGID_00000179628340029762393520000007800217176999640496_" gradientUnits="userSpaceOnUse" x1="407.1558" y1="958.7491" x2="407.1558" y2="994.4423" gradientTransform="matrix(1 0 0 -1 0 1034.4158)">
					<stop offset="0" style="stop-color:#2266E3"/>
					<stop offset="1" style="stop-color:#AE7FE2"/>
				</linearGradient>
				<path style="fill:url(#SVGID_00000179628340029762393520000007800217176999640496_);" d="M 423.13,37.26 L 423.13,37.26 C 423.13,39.84 421.52,42.15 419.09,43.04 L 391.17,53.24 L 391.17,77.82 L 423.13,66.14 L 423.13,37.26 L 423.13,37.26"/>
				<linearGradient id="SVGID_00000127737009981319319640000004625573773135000728_" gradientUnits="userSpaceOnUse" x1="423.1349" y1="976.8746" x2="410.8902" y2="976.8746" gradientTransform="matrix(1 0 0 -1 0 1034.4158)">
					<stop offset="0" style="stop-color:#94B9FF"/>
					<stop offset="0.2878" style="stop-color:#94B9FF;stop-opacity:0.5236"/>
					<stop offset="1" style="stop-color:#538FFF;stop-opacity:0"/>
				</linearGradient>
				<path style="opacity:0.5;fill:url(#SVGID_00000127737009981319319640000004625573773135000728_);enable-background:new ;" d="M 423.13,37.26 L 423.13,37.26 C 423.13,39.84 421.52,42.15 419.09,43.04 L 391.17,53.24 L 391.17,77.82 L 423.13,66.14 L 423.13,37.26 L 423.13,37.26"/>
				<path class="st110" d="M 410.84,46.06 L 401.0,49.66 L 401.0,64.08 C 401.0,64.94 401.86,65.53 402.66,65.23 L 406.86,63.65 C 409.26,62.75 410.84,60.46 410.84,57.9 L 410.84,46.06 L 410.84,46.06"/>
			</g>
		</g>


		<g class="st66" name="Microsoft">
			<path d="M 420.8,162.7 L 411.6,162.7 L 411.6,109.5 C 411.6,105.3 411.9,100.2 412.4,94.1 L 412.2,94.1 C 411.3,97.7 410.5,100.2 409.8,101.8 L 382.7,162.7 L 378.2,162.7 L 351.2,102.2 C 350.4,100.4 349.6,97.7 348.8,94.1 L 348.6,94.1 C 348.9,97.3 349.0,102.4 349.0,109.6 L 349.0,162.7 L 340.0,162.7 L 340.0,83.4 L 352.3,83.4 L 376.6,138.7 C 378.5,142.9 379.7,146.1 380.2,148.2 L 380.5,148.2 C 382.1,143.9 383.4,140.6 384.3,138.5 L 409.1,83.4 L 420.7,83.4 L 420.7,162.7 L 420.8,162.7"/>
			<path d="M 445.0,91.7 C 443.4,91.7 442.0,91.1 440.9,90.0 C 439.8,88.9 439.2,87.5 439.2,85.8 C 439.2,84.1 439.8,82.7 440.9,81.6 C 442.0,80.5 443.4,79.9 445.0,79.9 C 446.7,79.9 448.1,80.5 449.2,81.6 C 450.3,82.7 450.9,84.1 450.9,85.8 C 450.9,87.4 450.3,88.8 449.2,89.9 C 448.1,91.1 446.7,91.7 445.0,91.7 M 449.5,162.7 L 440.4,162.7 L 440.4,106.1 L 449.5,106.1 L 449.5,162.7"/>
			<path d="M 506.4,160.1 C 502.0,162.7 496.9,164.0 490.9,164.0 C 482.8,164.0 476.3,161.4 471.4,156.1 C 466.4,150.8 464.0,144.0 464.0,135.7 C 464.0,126.4 466.7,118.9 472.0,113.2 C 477.3,107.5 484.5,104.7 493.4,104.7 C 498.4,104.7 502.8,105.6 506.6,107.5 L 506.6,116.8 C 502.4,113.9 497.9,112.4 493.1,112.4 C 487.3,112.4 482.6,114.5 478.9,118.6 C 475.2,122.7 473.3,128.2 473.3,134.9 C 473.3,141.5 475.0,146.8 478.5,150.6 C 482.0,154.4 486.7,156.4 492.5,156.4 C 497.4,156.4 502.1,154.8 506.4,151.5 L 506.4,160.1 L 506.4,160.1"/>
			<path d="M 549.7,115.2 C 548.1,114.0 545.8,113.4 542.8,113.4 C 538.9,113.4 535.7,115.2 533.1,118.9 C 530.5,122.5 529.2,127.5 529.2,133.8 L 529.2,162.7 L 520.1,162.7 L 520.1,106.1 L 529.2,106.1 L 529.2,117.8 L 529.4,117.8 C 530.7,113.8 532.7,110.7 535.3,108.5 C 538.0,106.3 540.9,105.2 544.2,105.2 C 546.6,105.2 548.4,105.5 549.6,106.0 L 549.6,115.2 L 549.7,115.2"/>
			<path d="M 581.7,164.0 C 573.3,164.0 566.6,161.4 561.7,156.1 C 556.7,150.8 554.2,143.8 554.2,135.1 C 554.2,125.6 556.8,118.2 562.0,112.8 C 567.2,107.5 574.2,104.8 583.1,104.8 C 591.5,104.8 598.1,107.4 602.9,112.6 C 607.6,117.8 610.0,125.0 610.0,134.2 C 610.0,143.2 607.4,150.5 602.3,155.9 C 597.2,161.3 590.3,164.0 581.7,164.0 M 582.3,112.4 C 576.5,112.4 571.9,114.4 568.5,118.3 C 565.1,122.3 563.4,127.7 563.4,134.7 C 563.4,141.4 565.1,146.7 568.5,150.6 C 571.9,154.5 576.5,156.4 582.3,156.4 C 588.2,156.4 592.7,154.5 595.8,150.7 C 599.0,146.9 600.5,141.5 600.5,134.5 C 600.5,127.4 598.9,122.0 595.8,118.1 C 592.7,114.3 588.2,112.4 582.3,112.4"/>
			<path d="M 620.9,160.6 L 620.9,150.9 C 625.8,154.5 631.3,156.4 637.2,156.4 C 645.2,156.4 649.1,153.7 649.1,148.4 C 649.1,146.9 648.8,145.6 648.1,144.6 C 647.4,143.5 646.5,142.6 645.3,141.8 C 644.1,141.0 642.8,140.3 641.2,139.6 C 639.6,139.0 637.9,138.3 636.1,137.6 C 633.6,136.6 631.4,135.6 629.5,134.6 C 627.6,133.6 626.0,132.4 624.7,131.2 C 623.4,129.9 622.5,128.5 621.8,126.9 C 621.2,125.3 620.8,123.4 620.8,121.2 C 620.8,118.5 621.4,116.2 622.6,114.1 C 623.8,112.1 625.4,110.3 627.5,109.0 C 629.6,107.7 631.8,106.6 634.4,105.9 C 637.0,105.2 639.7,104.8 642.4,104.8 C 647.3,104.8 651.7,105.6 655.6,107.3 L 655.6,116.5 C 651.4,113.8 646.6,112.4 641.2,112.4 C 639.5,112.4 638.0,112.6 636.6,113.0 C 635.2,113.4 634.1,113.9 633.1,114.6 C 632.1,115.3 631.4,116.1 630.8,117.1 C 630.3,118.1 630.0,119.2 630.0,120.3 C 630.0,121.8 630.3,123.0 630.8,124.0 C 631.3,125.0 632.1,125.9 633.2,126.7 C 634.2,127.5 635.5,128.2 637.0,128.8 C 638.5,129.4 640.2,130.1 642.0,130.8 C 644.5,131.8 646.8,132.7 648.7,133.8 C 650.7,134.8 652.4,136.0 653.8,137.2 C 655.2,138.5 656.3,139.9 657.0,141.6 C 657.8,143.3 658.1,145.2 658.1,147.5 C 658.1,150.3 657.5,152.7 656.2,154.8 C 655.0,156.9 653.3,158.6 651.3,159.9 C 649.2,161.3 646.9,162.3 644.2,162.9 C 641.5,163.6 638.7,163.9 635.7,163.9 C 630.3,164.0 625.2,162.9 620.9,160.6"/>
			<path d="M 696.1,164.0 C 687.7,164.0 681.0,161.4 676.1,156.1 C 671.1,150.8 668.6,143.8 668.6,135.1 C 668.6,125.6 671.2,118.2 676.4,112.8 C 681.6,107.5 688.6,104.8 697.5,104.8 C 705.9,104.8 712.5,107.4 717.3,112.6 C 722.0,117.8 724.4,125.0 724.4,134.2 C 724.4,143.2 721.8,150.5 716.7,155.9 C 711.5,161.3 704.7,164.0 696.1,164.0 M 696.8,112.4 C 691.0,112.4 686.4,114.4 683.0,118.3 C 679.6,122.3 677.9,127.7 677.9,134.7 C 677.9,141.4 679.6,146.7 683.0,150.6 C 686.4,154.5 691.0,156.4 696.8,156.4 C 702.7,156.4 707.2,154.5 710.3,150.7 C 713.5,146.9 715.0,141.5 715.0,134.5 C 715.0,127.4 713.4,122.0 710.3,118.1 C 707.1,114.3 702.6,112.4 696.8,112.4"/>
			<path d="M 764.7,86.8 C 762.9,85.8 760.9,85.3 758.7,85.3 C 752.4,85.3 749.2,89.3 749.2,97.3 L 749.2,106.0 L 762.5,106.0 L 762.5,113.7 L 749.2,113.7 L 749.2,162.6 L 740.2,162.6 L 740.2,113.7 L 730.5,113.7 L 730.5,106.0 L 740.2,106.0 L 740.2,96.8 C 740.2,90.9 741.9,86.2 745.3,82.7 C 748.7,79.3 753.0,77.5 758.1,77.5 C 760.9,77.5 763.1,77.8 764.7,78.5 L 764.7,86.8"/>
			<path d="M 800.5,162.1 C 798.4,163.3 795.5,163.9 792.0,163.9 C 782.1,163.9 777.1,158.4 777.1,147.3 L 777.1,113.8 L 767.4,113.8 L 767.4,106.1 L 777.1,106.1 L 777.1,92.2 L 786.2,89.3 L 786.2,106.1 L 800.5,106.1 L 800.5,113.8 L 786.2,113.8 L 786.2,145.7 C 786.2,149.5 786.8,152.2 788.1,153.8 C 789.4,155.4 791.5,156.2 794.5,156.2 C 796.8,156.2 798.8,155.6 800.4,154.3 L 800.4,162.1 L 800.5,162.1"/>
		</g>
		<g class="st66" name="Dynamics_365">
			<path d="M 339.9,283.7 L 339.9,204.4 L 361.8,204.4 C 389.7,204.4 403.7,217.3 403.7,243.1 C 403.7,255.3 399.8,265.2 392.1,272.6 C 384.3,280.0 374.0,283.7 360.9,283.7 L 339.9,283.7 M 349.2,212.8 L 349.2,275.3 L 361.0,275.3 C 371.4,275.3 379.5,272.5 385.3,266.9 C 391.1,261.3 394.0,253.4 394.0,243.2 C 394.0,222.9 383.2,212.7 361.6,212.7 L 349.2,212.7 L 349.2,212.8"/>
			<path d="M 463.2,227.1 L 437.2,292.8 C 432.6,304.5 426.0,310.4 417.6,310.4 C 415.2,310.4 413.3,310.2 411.7,309.7 L 411.7,301.6 C 413.7,302.3 415.4,302.6 417.1,302.6 C 421.7,302.6 425.1,299.9 427.4,294.4 L 431.9,283.7 L 409.8,227.2 L 419.9,227.2 L 435.2,270.8 C 435.4,271.4 435.8,272.8 436.4,275.1 L 436.7,275.1 C 436.9,274.2 437.3,272.8 437.8,270.9 L 453.9,227.2 L 463.2,227.2 L 463.2,227.1"/>
			<path d="M 519.9,283.7 L 510.8,283.7 L 510.8,251.4 C 510.8,239.4 506.4,233.4 497.6,233.4 C 493.1,233.4 489.3,235.1 486.3,238.5 C 483.3,241.9 481.8,246.2 481.8,251.4 L 481.8,283.7 L 472.7,283.7 L 472.7,227.1 L 481.8,227.1 L 481.8,236.5 L 482.0,236.5 C 486.3,229.3 492.5,225.8 500.6,225.8 C 506.8,225.8 511.5,227.8 514.8,231.8 C 518.1,235.8 519.7,241.6 519.7,249.1 L 519.7,283.7 L 519.9,283.7"/>
			<path d="M 577.5,283.7 L 568.4,283.7 L 568.4,274.9 L 568.2,274.9 C 564.3,281.7 558.4,285.1 550.8,285.1 C 545.2,285.1 540.7,283.6 537.6,280.6 C 534.5,277.6 532.8,273.7 532.8,268.7 C 532.8,258.1 539.0,252.0 551.5,250.2 L 568.5,247.8 C 568.5,238.2 564.6,233.4 556.8,233.4 C 550.0,233.4 543.8,235.7 538.3,240.4 L 538.3,231.0 C 543.9,227.5 550.3,225.7 557.5,225.7 C 570.8,225.7 577.5,232.7 577.5,246.8 L 577.5,283.7 M 568.5,255.0 L 554.8,256.9 C 550.6,257.5 547.4,258.5 545.3,260.0 C 543.2,261.5 542.1,264.1 542.1,267.9 C 542.1,270.7 543.1,272.9 545.1,274.7 C 547.1,276.5 549.7,277.3 553.0,277.3 C 557.5,277.3 561.2,275.7 564.1,272.6 C 567.0,269.5 568.5,265.5 568.5,260.6 L 568.5,255.0 L 568.5,255.0"/>
			<path d="M 675.0,283.7 L 666.0,283.7 L 666.0,251.2 C 666.0,244.9 665.0,240.4 663.1,237.6 C 661.2,234.8 657.9,233.4 653.3,233.4 C 649.4,233.4 646.1,235.2 643.4,238.7 C 640.7,242.2 639.3,246.5 639.3,251.4 L 639.3,283.7 L 630.2,283.7 L 630.2,250.1 C 630.2,239.0 625.9,233.4 617.3,233.4 C 613.3,233.4 610.0,235.1 607.5,238.4 C 604.9,241.7 603.6,246.1 603.6,251.4 L 603.6,283.7 L 594.5,283.7 L 594.5,227.1 L 603.6,227.1 L 603.6,236.1 L 603.8,236.1 C 607.8,229.2 613.7,225.8 621.4,225.8 C 625.3,225.8 628.6,226.9 631.5,229.0 C 634.4,231.2 636.3,234.0 637.4,237.5 C 641.6,229.7 647.9,225.8 656.2,225.8 C 668.7,225.8 674.9,233.5 674.9,248.9 L 674.9,283.7 L 675.0,283.7"/>
			<path d="M 696.8,212.7 C 695.2,212.7 693.8,212.1 692.7,211.0 C 691.6,209.9 691.0,208.5 691.0,206.8 C 691.0,205.1 691.6,203.7 692.7,202.6 C 693.8,201.5 695.2,200.9 696.8,200.9 C 698.5,200.9 699.9,201.5 701.0,202.6 C 702.2,203.7 702.7,205.1 702.7,206.8 C 702.7,208.4 702.1,209.8 701.0,210.9 C 699.9,212.1 698.5,212.7 696.8,212.7 M 701.2,283.7 L 692.1,283.7 L 692.1,227.1 L 701.2,227.1 L 701.2,283.7"/>
			<path d="M 758.2,281.1 C 753.8,283.7 748.7,285.0 742.7,285.0 C 734.6,285.0 728.1,282.4 723.2,277.1 C 718.2,271.8 715.8,265.0 715.8,256.7 C 715.8,247.4 718.5,239.9 723.8,234.2 C 729.1,228.5 736.3,225.7 745.2,225.7 C 750.2,225.7 754.6,226.6 758.4,228.5 L 758.4,237.8 C 754.2,234.9 749.7,233.4 744.9,233.4 C 739.1,233.4 734.4,235.5 730.7,239.6 C 727.0,243.7 725.1,249.2 725.1,255.9 C 725.1,262.5 726.8,267.8 730.3,271.6 C 733.8,275.4 738.5,277.4 744.3,277.4 C 749.2,277.4 753.9,275.8 758.2,272.5 L 758.2,281.1"/>
			<path d="M 768.5,281.6 L 768.5,271.9 C 773.4,275.5 778.9,277.4 784.8,277.4 C 792.8,277.4 796.7,274.7 796.7,269.4 C 796.7,267.9 796.4,266.6 795.7,265.6 C 795.0,264.5 794.1,263.6 792.9,262.8 C 791.7,262.0 790.4,261.3 788.8,260.6 C 787.2,260.0 785.5,259.3 783.7,258.6 C 781.2,257.6 779.0,256.6 777.1,255.6 C 775.2,254.6 773.6,253.4 772.3,252.2 C 771.0,250.9 770.1,249.5 769.4,247.9 C 768.8,246.3 768.4,244.4 768.4,242.2 C 768.4,239.5 769.0,237.2 770.2,235.1 C 771.4,233.0 773.0,231.3 775.1,230.0 C 777.2,228.7 779.4,227.6 782.0,226.9 C 784.6,226.2 787.3,225.8 790.0,225.8 C 794.9,225.8 799.3,226.6 803.2,228.3 L 803.2,237.5 C 799.0,234.8 794.2,233.4 788.8,233.4 C 787.1,233.4 785.6,233.6 784.2,234.0 C 782.8,234.4 781.7,234.9 780.7,235.6 C 779.7,236.3 779.0,237.1 778.4,238.1 C 777.9,239.1 777.6,240.2 777.6,241.3 C 777.6,242.8 777.9,244.0 778.4,245.0 C 778.9,246.0 779.7,246.9 780.7,247.7 C 781.7,248.5 783.0,249.2 784.5,249.8 C 786.0,250.4 787.7,251.1 789.5,251.8 C 792.0,252.8 794.3,253.7 796.2,254.8 C 798.2,255.8 799.9,257.0 801.3,258.2 C 802.7,259.5 803.8,260.9 804.5,262.6 C 805.3,264.3 805.6,266.2 805.6,268.5 C 805.6,271.3 805.0,273.7 803.7,275.8 C 802.5,277.9 800.8,279.6 798.8,280.9 C 796.7,282.3 794.4,283.3 791.7,283.9 C 789.0,284.6 786.2,284.9 783.2,284.9 C 777.8,285.0 772.8,283.9 768.5,281.6"/>
			<path d="M 849.1,280.8 L 849.1,271.0 C 854.5,275.3 860.6,277.4 867.5,277.4 C 873.0,277.4 877.4,276.0 880.7,273.3 C 884.0,270.5 885.6,266.8 885.6,262.1 C 885.6,251.7 878.2,246.6 863.5,246.6 L 857.0,246.6 L 857.0,238.9 L 863.2,238.9 C 876.3,238.9 882.8,234.0 882.8,224.3 C 882.8,215.3 877.8,210.8 867.8,210.8 C 862.2,210.8 857.0,212.7 852.0,216.5 L 852.0,207.7 C 857.1,204.7 863.1,203.2 870.0,203.2 C 876.7,203.2 882.0,205.0 886.0,208.5 C 890.0,212.0 892.0,216.6 892.0,222.1 C 892.0,232.5 886.7,239.2 876.1,242.2 L 876.1,242.4 C 881.8,243.0 886.4,245.0 889.7,248.4 C 893.1,251.8 894.8,256.2 894.8,261.3 C 894.8,268.4 892.2,274.2 887.1,278.5 C 882.0,282.9 875.3,285.1 866.9,285.1 C 859.5,285.0 853.5,283.6 849.1,280.8"/>
			<path d="M 954.5,205.3 L 954.5,213.9 C 950.4,211.8 946.1,210.7 941.6,210.7 C 934.6,210.7 928.9,213.8 924.7,220.1 C 920.5,226.4 918.4,234.8 918.4,245.3 L 918.6,245.3 C 922.3,237.8 928.3,234.1 936.7,234.1 C 943.6,234.1 949.1,236.3 953.2,240.8 C 957.3,245.2 959.3,251.2 959.3,258.6 C 959.3,266.4 957.0,272.7 952.3,277.6 C 947.6,282.5 941.7,285.0 934.4,285.0 C 926.4,285.0 920.2,281.8 915.7,275.5 C 911.2,269.2 908.9,260.3 908.9,248.8 C 908.9,234.9 911.9,223.8 917.8,215.5 C 923.7,207.2 931.6,203.1 941.3,203.1 C 946.9,203.1 951.3,203.8 954.5,205.3 M 934.7,241.8 C 930.0,241.8 926.2,243.4 923.3,246.6 C 920.4,249.8 918.9,253.5 918.9,257.8 C 918.9,263.2 920.3,267.8 923.2,271.7 C 926.1,275.5 929.9,277.5 934.7,277.5 C 939.3,277.5 943.0,275.8 945.8,272.5 C 948.6,269.2 950.0,264.9 950.0,259.8 C 950.0,254.2 948.7,249.8 946.0,246.6 C 943.4,243.4 939.6,241.8 934.7,241.8"/>
			<path d="M 973.0,281.8 L 973.0,272.2 C 978.4,275.7 983.9,277.5 989.5,277.5 C 995.1,277.5 999.6,275.9 1003.0,272.7 C 1006.4,269.5 1008.1,265.3 1008.1,260.1 C 1008.1,254.9 1006.3,250.8 1002.8,247.9 C 999.3,245.0 994.3,243.5 987.8,243.5 C 985.6,243.5 981.4,243.7 975.4,244.2 L 975.4,204.4 L 1013.8,204.4 L 1013.8,212.6 L 984.0,212.6 L 984.0,235.8 C 986.4,235.7 988.7,235.6 990.7,235.6 C 999.2,235.6 1005.7,237.7 1010.4,242.0 C 1015.0,246.3 1017.4,252.1 1017.4,259.5 C 1017.4,267.2 1014.9,273.3 1009.9,278.0 C 1004.9,282.7 998.1,285.0 989.4,285.0 C 982.1,285.0 976.6,283.9 973.0,281.8"/>
		</g>
	</g>
</svg>