<svg width="15" height="15" viewBox="0 0 15 15" fill="none" xmlns="http://www.w3.org/2000/svg">
<path d="M14.7188 1.22485V5.16235C14.7188 5.3364 14.6496 5.50332 14.5265 5.62639C14.4035 5.74946 14.2365 5.8186 14.0625 5.8186C13.8885 5.8186 13.7215 5.74946 13.5985 5.62639C13.4754 5.50332 13.4062 5.3364 13.4062 5.16235V2.80888L9.93305 6.2829C9.80991 6.40604 9.6429 6.47522 9.46875 6.47522C9.2946 6.47522 9.12759 6.40604 9.00445 6.2829C8.88131 6.15976 8.81213 5.99275 8.81213 5.8186C8.81213 5.64446 8.88131 5.47745 9.00445 5.35431L12.4785 1.8811H10.125C9.95095 1.8811 9.78403 1.81196 9.66096 1.68889C9.53789 1.56582 9.46875 1.3989 9.46875 1.22485C9.46875 1.05081 9.53789 0.883886 9.66096 0.760815C9.78403 0.637744 9.95095 0.568604 10.125 0.568604H14.0625C14.2365 0.568604 14.4035 0.637744 14.5265 0.760815C14.6496 0.883886 14.7188 1.05081 14.7188 1.22485ZM5.06695 9.29181L1.59375 12.7658V10.4124C1.59375 10.2383 1.52461 10.0714 1.40154 9.94831C1.27847 9.82524 1.11155 9.7561 0.9375 9.7561C0.763452 9.7561 0.596532 9.82524 0.473461 9.94831C0.350391 10.0714 0.28125 10.2383 0.28125 10.4124V14.3499C0.28125 14.5239 0.350391 14.6908 0.473461 14.8139C0.596532 14.937 0.763452 15.0061 0.9375 15.0061H4.875C5.04905 15.0061 5.21597 14.937 5.33904 14.8139C5.46211 14.6908 5.53125 14.5239 5.53125 14.3499C5.53125 14.1758 5.46211 14.0089 5.33904 13.8858C5.21597 13.7627 5.04905 13.6936 4.875 13.6936H2.52152L5.99555 10.2204C6.11869 10.0973 6.18786 9.93025 6.18786 9.7561C6.18786 9.58196 6.11869 9.41495 5.99555 9.29181C5.87241 9.16867 5.7054 9.09949 5.53125 9.09949C5.3571 9.09949 5.19009 9.16867 5.06695 9.29181ZM14.0625 9.7561C13.8885 9.7561 13.7215 9.82524 13.5985 9.94831C13.4754 10.0714 13.4062 10.2383 13.4062 10.4124V12.7658L9.93305 9.29181C9.80991 9.16867 9.6429 9.09949 9.46875 9.09949C9.2946 9.09949 9.12759 9.16867 9.00445 9.29181C8.88131 9.41495 8.81213 9.58196 8.81213 9.7561C8.81213 9.93025 8.88131 10.0973 9.00445 10.2204L12.4785 13.6936H10.125C9.95095 13.6936 9.78403 13.7627 9.66096 13.8858C9.53789 14.0089 9.46875 14.1758 9.46875 14.3499C9.46875 14.5239 9.53789 14.6908 9.66096 14.8139C9.78403 14.937 9.95095 15.0061 10.125 15.0061H14.0625C14.2365 15.0061 14.4035 14.937 14.5265 14.8139C14.6496 14.6908 14.7188 14.5239 14.7188 14.3499V10.4124C14.7188 10.2383 14.6496 10.0714 14.5265 9.94831C14.4035 9.82524 14.2365 9.7561 14.0625 9.7561ZM2.52152 1.8811H4.875C5.04905 1.8811 5.21597 1.81196 5.33904 1.68889C5.46211 1.56582 5.53125 1.3989 5.53125 1.22485C5.53125 1.05081 5.46211 0.883886 5.33904 0.760815C5.21597 0.637744 5.04905 0.568604 4.875 0.568604H0.9375C0.763452 0.568604 0.596532 0.637744 0.473461 0.760815C0.350391 0.883886 0.28125 1.05081 0.28125 1.22485V5.16235C0.28125 5.3364 0.350391 5.50332 0.473461 5.62639C0.596532 5.74946 0.763452 5.8186 0.9375 5.8186C1.11155 5.8186 1.27847 5.74946 1.40154 5.62639C1.52461 5.50332 1.59375 5.3364 1.59375 5.16235V2.80888L5.06695 6.2829C5.19009 6.40604 5.3571 6.47522 5.53125 6.47522C5.7054 6.47522 5.87241 6.40604 5.99555 6.2829C6.11869 6.15976 6.18786 5.99275 6.18786 5.8186C6.18786 5.64446 6.11869 5.47745 5.99555 5.35431L2.52152 1.8811Z" fill="#1C1C1C"/>
</svg>
